<?xml version="1.0" encoding="UTF-8" standalone="no"?>
<svg xmlns="http://www.w3.org/2000/svg" version="1.2" baseProfile="tiny" viewBox="0 0 1080 1080">
<g stroke-width="2.00" fill="none" stroke-linecap="butt">
<path stroke="#92b041" vector-effect="non-scaling-stroke" d="
  M 524.50 587.04
  L 524.00 587.46"
/>
<path stroke="#32a59d" vector-effect="non-scaling-stroke" d="
  M 724.00 552.04
  Q 724.70 552.49 725.55 552.38
  Q 726.06 552.32 726.26 552.80
  C 727.84 556.64 730.32 560.37 730.71 564.55
  C 731.32 571.06 732.99 577.01 731.30 583.54
  Q 729.65 589.91 729.62 590.05
  Q 726.87 602.50 718.42 613.71
  Q 717.65 614.72 717.10 615.10
  Q 716.69 615.38 716.43 615.80
  C 714.63 618.87 712.12 621.86 711.97 625.47
  Q 711.79 629.58 712.77 633.67
  Q 712.89 634.19 713.36 634.43
  C 718.44 637.02 722.79 641.21 727.72 644.29
  C 730.53 646.04 733.88 649.13 737.49 650.54
  C 749.24 655.13 765.19 661.48 780.19 665.18
  Q 780.68 665.30 781.05 665.65
  C 783.06 667.60 789.15 668.32 792.40 669.00
  Q 794.67 669.47 797.92 670.56
  Q 802.37 672.05 812.43 673.48
  Q 819.36 674.47 824.90 675.88
  C 829.20 676.98 836.26 679.65 840.51 679.06
  Q 841.06 678.99 840.99 679.54
  Q 840.98 679.69 841.02 679.83
  Q 841.11 680.11 841.32 679.90
  L 841.71 679.50"
/>
<path stroke="#2e8c85" vector-effect="non-scaling-stroke" d="
  M 749.50 552.04
  L 756.93 552.47
  Q 757.70 552.51 756.94 552.64
  Q 755.82 552.82 754.83 552.79
  Q 754.04 552.77 754.82 553.17
  C 756.37 553.99 754.85 557.73 754.43 559.23
  C 752.92 564.62 754.52 571.01 753.84 577.50
  C 753.20 583.64 753.96 591.52 752.29 598.13
  C 748.47 613.27 749.46 624.75 763.76 633.04
  C 769.65 636.45 775.38 640.22 782.94 642.44
  C 789.72 644.43 796.65 646.82 803.75 647.32
  Q 812.32 647.93 820.55 650.44
  Q 821.03 650.59 821.52 650.45
  C 823.71 649.79 829.65 651.53 827.81 646.84
  Q 809.85 601.11 791.86 555.41
  C 791.37 554.16 790.45 553.44 789.75 552.29"
/>
</g>
<path fill="#f7e108" d="
  M 608.09 399.18
  L 689.04 408.70
  A 0.33 0.33 0.0 0 1 689.04 409.36
  L 608.09 418.88
  A 0.33 0.33 0.0 0 0 607.80 419.17
  L 598.28 500.12
  A 0.33 0.33 0.0 0 1 597.62 500.12
  L 588.10 419.17
  A 0.33 0.33 0.0 0 0 587.81 418.88
  L 506.86 409.36
  A 0.33 0.33 0.0 0 1 506.86 408.70
  L 587.81 399.18
  A 0.33 0.33 0.0 0 0 588.10 398.89
  L 597.62 317.94
  A 0.33 0.33 0.0 0 1 598.28 317.94
  L 607.80 398.89
  A 0.33 0.33 0.0 0 0 608.09 399.18
  Z"
/>
<path fill="#f7e108" d="
  M 342.76 435.69
  L 423.76 445.14
  A 0.33 0.33 0.0 0 1 423.76 445.80
  L 342.76 455.25
  A 0.33 0.33 0.0 0 0 342.47 455.54
  L 333.02 536.54
  A 0.33 0.33 0.0 0 1 332.36 536.54
  L 322.91 455.54
  A 0.33 0.33 0.0 0 0 322.62 455.25
  L 241.62 445.80
  A 0.33 0.33 0.0 0 1 241.62 445.14
  L 322.62 435.69
  A 0.33 0.33 0.0 0 0 322.91 435.40
  L 332.36 354.40
  A 0.33 0.33 0.0 0 1 333.02 354.40
  L 342.47 435.40
  A 0.33 0.33 0.0 0 0 342.76 435.69
  Z"
/>
<path fill="#34b1a9" d="
  M 840.28 491.79
  L 922.17 501.59
  A 0.52 0.52 0.0 0 1 922.17 502.63
  L 840.28 512.43
  A 0.52 0.52 0.0 0 0 839.83 512.88
  L 830.03 594.77
  A 0.52 0.52 0.0 0 1 828.99 594.77
  L 819.19 512.88
  A 0.52 0.52 0.0 0 0 818.74 512.43
  L 736.85 502.63
  A 0.52 0.52 0.0 0 1 736.85 501.59
  L 818.74 491.79
  A 0.52 0.52 0.0 0 0 819.19 491.34
  L 828.99 409.45
  A 0.52 0.52 0.0 0 1 830.03 409.45
  L 839.83 491.34
  A 0.52 0.52 0.0 0 0 840.28 491.79
  Z"
/>
<path fill="#34b1a9" d="
  M 386.95 499.10
  A 0.31 0.31 0.0 0 1 387.06 498.51
  C 396.34 497.87 405.49 498.06 414.95 497.41
  C 423.38 496.83 431.28 496.64 439.95 497.87
  Q 599.63 520.66 759.29 543.51
  C 762.56 543.98 767.72 545.14 772.23 545.20
  Q 774.05 545.22 772.38 545.69
  Q 771.89 545.82 771.06 545.83
  Q 715.15 546.35 680.97 546.09
  Q 674.31 546.04 667.62 544.96
  Q 529.05 522.50 390.46 500.23
  Q 388.90 499.98 386.95 499.10
  Z"
/>
<path fill="#34b1a9" d="
  M 550.12 582.27
  L 359.43 554.26
  A 1.10 1.10 0.0 0 1 358.53 552.88
  L 372.50 502.58
  A 1.10 1.10 0.0 0 1 373.75 501.79
  L 670.82 552.06
  A 1.10 1.10 0.0 0 1 671.72 553.32
  L 643.61 721.85
  A 1.10 1.10 0.0 0 1 642.06 722.67
  L 596.27 701.33
  A 1.10 1.10 0.0 0 1 595.71 700.72
  L 550.99 582.96
  A 1.10 1.10 0.0 0 0 550.12 582.27
  Z"
/>
<path fill="#f7e108" d="
  M 524.50 587.04
  L 524.00 587.46
  Q 478.96 587.10 433.90 587.26
  Q 427.98 587.28 422.18 586.31
  Q 304.99 566.68 187.79 547.10
  Q 186.65 546.91 187.81 546.86
  Q 211.26 545.81 234.68 545.18
  C 235.40 545.17 235.91 545.54 236.45 545.62
  Q 380.48 566.27 524.50 587.04
  Z"
/>
<path fill="#34b1a9" d="
  M 724.00 552.04
  Q 724.70 552.49 725.55 552.38
  Q 726.06 552.32 726.26 552.80
  C 727.84 556.64 730.32 560.37 730.71 564.55
  C 731.32 571.06 732.99 577.01 731.30 583.54
  Q 729.65 589.91 729.62 590.05
  Q 726.87 602.50 718.42 613.71
  Q 717.65 614.72 717.10 615.10
  Q 716.69 615.38 716.43 615.80
  C 714.63 618.87 712.12 621.86 711.97 625.47
  Q 711.79 629.58 712.77 633.67
  Q 712.89 634.19 713.36 634.43
  C 718.44 637.02 722.79 641.21 727.72 644.29
  C 730.53 646.04 733.88 649.13 737.49 650.54
  C 749.24 655.13 765.19 661.48 780.19 665.18
  Q 780.68 665.30 781.05 665.65
  C 783.06 667.60 789.15 668.32 792.40 669.00
  Q 794.67 669.47 797.92 670.56
  Q 802.37 672.05 812.43 673.48
  Q 819.36 674.47 824.90 675.88
  C 829.20 676.98 836.26 679.65 840.51 679.06
  Q 841.06 678.99 840.99 679.54
  Q 840.98 679.69 841.02 679.83
  Q 841.11 680.11 841.32 679.90
  L 841.71 679.50
  L 846.31 691.18
  Q 846.48 691.61 846.02 691.68
  L 656.23 722.98
  A 0.67 0.67 0.0 0 1 655.46 722.22
  L 682.69 553.28
  A 1.49 1.49 0.0 0 1 684.16 552.02
  L 724.00 552.04
  Z"
/>
<path fill="#309891" d="
  M 724.00 552.04
  L 749.50 552.04
  L 756.93 552.47
  Q 757.70 552.51 756.94 552.64
  Q 755.82 552.82 754.83 552.79
  Q 754.04 552.77 754.82 553.17
  C 756.37 553.99 754.85 557.73 754.43 559.23
  C 752.92 564.62 754.52 571.01 753.84 577.50
  C 753.20 583.64 753.96 591.52 752.29 598.13
  C 748.47 613.27 749.46 624.75 763.76 633.04
  C 769.65 636.45 775.38 640.22 782.94 642.44
  C 789.72 644.43 796.65 646.82 803.75 647.32
  Q 812.32 647.93 820.55 650.44
  Q 821.03 650.59 821.52 650.45
  C 823.71 649.79 829.65 651.53 827.81 646.84
  Q 809.85 601.11 791.86 555.41
  C 791.37 554.16 790.45 553.44 789.75 552.29
  L 790.95 552.24
  Q 791.50 552.21 791.70 552.72
  L 841.71 679.50
  L 841.32 679.90
  Q 841.11 680.11 841.02 679.83
  Q 840.98 679.69 840.99 679.54
  Q 841.06 678.99 840.51 679.06
  C 836.26 679.65 829.20 676.98 824.90 675.88
  Q 819.36 674.47 812.43 673.48
  Q 802.37 672.05 797.92 670.56
  Q 794.67 669.47 792.40 669.00
  C 789.15 668.32 783.06 667.60 781.05 665.65
  Q 780.68 665.30 780.19 665.18
  C 765.19 661.48 749.24 655.13 737.49 650.54
  C 733.88 649.13 730.53 646.04 727.72 644.29
  C 722.79 641.21 718.44 637.02 713.36 634.43
  Q 712.89 634.19 712.77 633.67
  Q 711.79 629.58 711.97 625.47
  C 712.12 621.86 714.63 618.87 716.43 615.80
  Q 716.69 615.38 717.10 615.10
  Q 717.65 614.72 718.42 613.71
  Q 726.87 602.50 729.62 590.05
  Q 729.65 589.91 731.30 583.54
  C 732.99 577.01 731.32 571.06 730.71 564.55
  C 730.32 560.37 727.84 556.64 726.26 552.80
  Q 726.06 552.32 725.55 552.38
  Q 724.70 552.49 724.00 552.04
  Z"
/>
<path fill="#2c7f79" d="
  M 749.50 552.04
  L 789.75 552.29
  C 790.45 553.44 791.37 554.16 791.86 555.41
  Q 809.85 601.11 827.81 646.84
  C 829.65 651.53 823.71 649.79 821.52 650.45
  Q 821.03 650.59 820.55 650.44
  Q 812.32 647.93 803.75 647.32
  C 796.65 646.82 789.72 644.43 782.94 642.44
  C 775.38 640.22 769.65 636.45 763.76 633.04
  C 749.46 624.75 748.47 613.27 752.29 598.13
  C 753.96 591.52 753.20 583.64 753.84 577.50
  C 754.52 571.01 752.92 564.62 754.43 559.23
  C 754.85 557.73 756.37 553.99 754.82 553.17
  Q 754.04 552.77 754.83 552.79
  Q 755.82 552.82 756.94 552.64
  Q 757.70 552.51 756.93 552.47
  L 749.50 552.04
  Z"
/>
<path fill="#f7e108" d="
  M 394.50 763.74
  L 157.45 637.30
  A 0.51 0.51 0.0 0 1 157.23 636.62
  Q 157.72 635.59 158.11 634.21
  Q 169.52 593.67 180.71 553.20
  Q 180.78 552.95 181.04 552.99
  L 422.83 593.67
  Q 423.30 593.75 423.22 594.21
  L 395.00 763.49
  A 0.35 0.34 -71.4 0 1 394.50 763.74
  Z"
/>
<path fill="#2c7f79" d="
  M 524.50 587.04
  Q 525.54 587.08 526.55 587.34
  Q 527.72 587.64 526.51 587.68
  Q 525.25 587.72 524.00 587.46
  L 524.50 587.04
  Z"
/>
<path fill="#f7e108" d="
  M 597.56 732.72
  L 408.62 763.88
  A 0.32 0.32 0.0 0 1 408.25 763.51
  L 435.54 594.02
  A 0.32 0.32 0.0 0 1 435.85 593.75
  L 542.96 593.75
  A 0.32 0.32 0.0 0 1 543.26 593.95
  L 597.80 732.29
  A 0.32 0.32 0.0 0 1 597.56 732.72
  Z"
/>
<path fill="#f7e108" d="
  M 66.44 926.02
  C 59.80 931.03 54.83 933.92 45.99 932.27
  C 33.33 929.92 32.23 916.43 34.38 906.24
  Q 42.51 867.63 50.81 829.06
  C 52.84 819.65 59.94 809.45 68.60 805.17
  C 75.67 801.67 86.29 800.87 93.06 805.08
  C 107.10 813.80 99.53 836.97 96.70 849.21
  Q 96.58 849.71 96.07 849.71
  L 78.17 849.68
  A 0.44 0.44 0.0 0 1 77.74 849.15
  Q 79.87 839.25 81.86 829.34
  Q 82.93 824.01 79.76 821.10
  Q 79.34 820.71 78.77 820.71
  C 72.37 820.62 70.39 826.16 69.30 831.31
  Q 61.41 868.66 53.48 906.00
  C 52.69 909.72 52.38 916.88 58.75 915.53
  C 63.05 914.62 64.59 909.68 65.53 905.75
  Q 68.00 895.41 70.00 884.65
  Q 70.17 883.75 69.26 883.75
  L 63.94 883.75
  A 0.88 0.87 5.9 0 1 63.08 882.70
  L 66.13 867.92
  A 0.77 0.77 0.0 0 1 66.88 867.31
  L 91.81 867.35
  Q 92.80 867.35 92.60 868.32
  L 79.48 930.69
  Q 79.35 931.27 78.75 931.27
  L 68.55 931.21
  Q 67.97 931.21 67.86 930.64
  L 67.00 926.23
  Q 66.89 925.68 66.44 926.02
  Z"
/>
<path fill="#f7e108" d="
  M 478.57 931.20
  C 464.26 926.82 466.50 906.42 469.45 895.87
  A 0.85 0.83 4.4 0 1 470.18 895.26
  L 487.04 893.71
  Q 488.43 893.58 488.16 894.95
  C 487.17 899.89 485.53 907.99 487.79 912.19
  C 490.89 917.96 497.17 914.70 499.68 910.39
  C 505.08 901.10 503.52 892.95 499.29 883.37
  C 493.12 869.38 483.78 853.72 484.84 837.44
  C 486.17 817.17 501.78 798.20 524.00 802.96
  C 538.72 806.12 538.51 824.45 535.47 835.70
  A 1.03 1.03 0.0 0 1 534.58 836.45
  L 517.48 838.00
  A 0.78 0.78 0.0 0 1 516.66 837.03
  Q 518.19 831.26 517.66 825.10
  C 517.13 818.93 510.77 817.92 507.75 822.97
  Q 501.16 833.97 506.06 845.96
  C 512.53 861.79 525.05 881.11 522.12 898.78
  C 520.38 909.34 515.51 921.62 506.36 927.78
  C 498.40 933.13 487.71 933.99 478.57 931.20
  Z"
/>
<path fill="#f7e108" d="
  M 176.14 803.50
  L 192.45 803.50
  A 0.75 0.75 0.0 0 1 193.19 804.41
  L 166.38 930.66
  A 0.75 0.75 0.0 0 1 165.64 931.25
  L 149.34 931.25
  A 0.75 0.75 0.0 0 1 148.60 930.34
  L 175.40 804.09
  A 0.75 0.75 0.0 0 1 176.14 803.50
  Z"
/>
<path fill="#f7e108" d="
  M 225.53 841.27
  L 233.56 803.92
  Q 233.65 803.50 234.09 803.50
  L 250.48 803.50
  Q 251.49 803.50 251.28 804.49
  L 224.52 930.58
  A 0.86 0.86 0.0 0 1 223.68 931.25
  L 207.41 931.25
  A 0.72 0.72 0.0 0 1 206.70 930.40
  L 207.47 926.21
  A 0.39 0.39 0.0 0 0 206.83 925.84
  C 201.83 930.11 194.40 934.70 187.81 931.71
  C 182.42 929.26 181.69 919.32 182.70 914.49
  Q 192.00 869.66 195.99 852.00
  C 198.93 839.03 213.14 826.94 224.55 841.49
  A 0.56 0.55 32.2 0 0 225.53 841.27
  Z
  M 201.19 910.13
  C 200.65 912.66 202.48 917.21 205.81 915.86
  C 209.21 914.48 210.47 912.14 211.27 908.43
  Q 216.72 883.14 221.94 857.81
  C 223.64 849.56 214.11 850.24 212.58 857.32
  Q 206.86 883.72 201.19 910.13
  Z"
/>
<path fill="#f7e108" d="
  M 426.55 841.27
  L 434.55 804.25
  Q 434.67 803.68 435.26 803.67
  L 452.07 803.44
  A 0.38 0.38 0.0 0 1 452.45 803.90
  L 425.52 930.80
  A 0.57 0.57 0.0 0 1 424.96 931.25
  L 408.92 931.25
  A 1.07 1.06 5.5 0 1 407.87 929.98
  L 408.59 926.29
  Q 408.83 925.06 407.87 925.87
  C 402.70 930.19 393.78 935.61 387.88 930.98
  C 381.50 925.97 383.36 916.64 384.76 909.81
  Q 390.31 882.84 396.22 855.95
  Q 397.90 848.32 399.81 844.91
  C 405.67 834.46 417.35 830.44 425.57 841.49
  A 0.55 0.55 0.0 0 0 426.55 841.27
  Z
  M 404.62 915.74
  A 1.80 1.79 -36.0 0 0 406.04 915.96
  C 411.23 914.62 411.76 910.99 412.88 905.72
  Q 418.05 881.36 423.25 857.00
  Q 423.77 854.59 421.51 852.37
  Q 421.17 852.03 420.69 851.96
  Q 415.04 851.15 413.75 856.82
  Q 410.59 870.64 402.54 909.88
  C 401.95 912.72 402.20 914.22 404.62 915.74
  Z"
/>
<path fill="#f7e108" d="
  M 565.69 821.34
  C 562.46 821.66 551.59 822.56 549.07 821.31
  Q 548.53 821.04 548.66 820.45
  L 552.05 804.37
  Q 552.19 803.68 552.89 803.67
  L 569.63 803.43
  A 0.44 0.43 6.3 0 1 570.06 803.96
  L 566.36 820.75
  Q 566.24 821.29 565.69 821.34
  Z"
/>
<path fill="#f7e108" d="
  M 601.37 804.40
  L 574.54 930.69
  A 0.71 0.71 0.0 0 1 573.84 931.25
  L 557.46 931.25
  A 0.71 0.71 0.0 0 1 556.76 930.39
  L 583.55 804.08
  A 0.71 0.71 0.0 0 1 584.25 803.52
  L 600.67 803.54
  A 0.71 0.71 0.0 0 1 601.37 804.40
  Z"
/>
<path fill="#f7e108" d="
  M 765.25 931.25
  A 0.83 0.83 0.0 0 1 764.44 930.24
  L 791.21 804.00
  A 0.57 0.57 0.0 0 1 791.76 803.54
  Q 803.43 803.27 815.04 804.01
  C 842.22 805.73 838.42 837.17 831.24 854.35
  Q 821.10 878.65 794.66 880.48
  A 0.86 0.86 0.0 0 0 793.87 881.17
  L 783.36 930.72
  Q 783.25 931.25 782.70 931.25
  L 765.25 931.25
  Z
  M 817.02 834.83
  C 818.23 827.30 814.64 823.16 807.22 822.97
  Q 806.17 822.95 805.95 823.98
  L 798.20 860.24
  A 0.43 0.43 0.0 0 0 798.58 860.76
  C 813.82 862.26 815.26 845.70 817.02 834.83
  Z"
/>
<path fill="#f7e108" d="
  M 908.37 821.37
  C 902.81 821.92 897.67 821.42 892.22 821.50
  A 0.85 0.85 0.0 0 1 891.38 820.47
  L 894.91 803.98
  Q 895.01 803.50 895.50 803.50
  L 912.22 803.50
  A 0.60 0.60 0.0 0 1 912.80 804.23
  L 909.08 820.74
  Q 908.95 821.31 908.37 821.37
  Z"
/>
<path fill="#f7e108" d="
  M 106.49 859.25
  C 110.18 843.64 123.63 831.17 140.76 835.79
  C 151.19 838.60 153.36 850.21 151.45 859.49
  Q 144.16 894.95 141.42 907.43
  C 138.25 921.86 127.26 933.82 111.73 932.56
  C 96.94 931.36 93.68 919.02 96.32 906.40
  Q 103.91 870.22 106.49 859.25
  Z
  M 112.48 909.49
  C 110.32 919.84 121.81 918.61 123.77 910.51
  Q 127.08 896.78 135.24 857.01
  Q 136.22 852.25 132.76 850.90
  C 127.93 849.02 124.37 854.10 123.46 858.25
  Q 117.86 883.85 112.48 909.49
  Z"
/>
<path fill="#f7e108" d="
  M 306.86 852.57
  C 306.00 850.25 302.67 850.07 300.98 851.22
  C 297.91 853.32 296.64 860.13 295.87 863.79
  Q 295.74 864.42 295.09 864.42
  L 278.86 864.44
  Q 278.06 864.44 278.16 863.65
  C 279.76 851.47 288.03 840.17 299.74 836.26
  C 310.88 832.54 323.14 836.30 325.03 849.07
  Q 325.59 852.85 324.21 859.34
  Q 317.85 889.32 311.56 919.31
  Q 310.59 923.96 310.26 930.76
  Q 310.23 931.30 309.69 931.30
  L 293.15 931.15
  A 0.96 0.96 0.0 0 1 292.20 930.15
  L 292.39 924.28
  A 0.35 0.35 0.0 0 0 291.81 924.01
  Q 289.48 926.13 287.16 928.15
  C 278.16 936.01 265.69 933.85 265.62 920.03
  Q 265.49 895.73 283.42 881.63
  C 288.48 877.65 295.81 874.39 302.03 871.12
  C 305.88 869.10 307.31 853.77 306.86 852.57
  Z
  M 285.27 914.00
  C 287.71 916.49 292.22 914.51 293.93 912.57
  Q 295.41 910.91 296.35 906.67
  Q 298.56 896.61 300.52 886.45
  A 0.50 0.50 0.0 0 0 299.79 885.92
  Q 284.86 894.38 284.15 911.75
  Q 284.11 912.81 285.27 914.00
  Z"
/>
<path fill="#f7e108" d="
  M 359.79 843.10
  C 365.61 838.51 375.08 830.10 381.68 838.04
  C 384.77 841.76 385.29 848.11 384.30 852.76
  Q 376.01 891.78 367.77 930.78
  A 0.59 0.58 -83.9 0 1 367.20 931.25
  L 350.50 931.25
  Q 349.85 931.25 349.99 930.62
  Q 361.97 873.62 365.68 856.50
  Q 366.22 853.99 364.71 852.50
  Q 364.31 852.11 363.76 852.12
  C 358.39 852.28 356.31 855.39 355.22 860.52
  Q 347.73 895.61 340.37 930.74
  Q 340.27 931.25 339.75 931.25
  L 323.72 931.25
  A 1.07 1.07 0.0 0 1 322.67 929.95
  L 342.51 836.53
  Q 342.64 835.92 343.27 835.93
  L 359.67 836.19
  Q 360.40 836.20 360.25 836.92
  L 359.09 842.67
  Q 358.85 843.84 359.79 843.10
  Z"
/>
<path fill="#f7e108" d="
  M 665.51 932.24
  C 646.28 935.78 639.10 921.91 642.78 905.20
  Q 646.50 888.30 650.24 871.41
  Q 653.43 856.97 654.79 853.78
  C 658.51 845.07 666.43 836.48 676.28 835.06
  C 693.46 832.58 701.53 844.22 698.17 860.29
  Q 695.43 873.44 692.89 885.27
  A 2.40 2.39 6.3 0 1 690.52 887.16
  L 664.53 886.94
  A 1.01 1.01 0.0 0 0 663.54 887.71
  Q 661.38 896.77 659.42 906.19
  C 658.71 909.61 658.23 913.85 660.99 916.27
  Q 663.43 918.41 666.88 915.89
  C 671.26 912.69 672.24 904.25 673.49 897.62
  Q 673.60 897.05 674.18 897.05
  L 689.96 896.90
  A 0.28 0.27 4.2 0 1 690.24 897.22
  C 687.73 911.79 682.56 929.11 665.51 932.24
  Z
  M 667.81 873.25
  L 678.03 873.25
  Q 678.63 873.25 678.77 872.67
  C 680.41 865.84 683.22 857.38 681.21 852.09
  Q 681.03 851.61 680.57 851.36
  C 670.41 845.92 667.83 866.37 666.71 871.90
  Q 666.44 873.25 667.81 873.25
  Z"
/>
<path fill="#f7e108" d="
  M 731.91 843.69
  Q 738.81 835.51 749.62 834.72
  A 0.72 0.71 -86.3 0 1 750.37 835.58
  L 746.73 853.24
  Q 746.51 854.33 745.40 854.18
  C 731.91 852.34 727.73 859.34 725.31 871.06
  Q 719.13 900.97 712.72 930.82
  Q 712.63 931.25 712.19 931.25
  L 695.33 931.25
  A 0.41 0.41 0.0 0 1 694.93 930.75
  L 714.75 837.31
  A 1.74 1.73 -83.4 0 1 716.48 835.93
  L 731.58 836.21
  A 0.97 0.96 -84.6 0 1 732.51 837.34
  L 731.44 843.48
  Q 731.28 844.44 731.91 843.69
  Z"
/>
<path fill="#f7e108" d="
  M 861.65 844.04
  A 0.19 0.19 0.0 0 0 861.99 844.20
  Q 868.81 835.60 879.90 834.72
  Q 881.03 834.63 880.80 835.73
  L 877.03 853.75
  A 0.70 0.70 0.0 0 1 876.23 854.29
  Q 864.95 852.44 859.75 859.69
  Q 857.46 862.90 855.29 873.35
  Q 849.33 902.11 843.15 930.81
  Q 843.05 931.28 842.57 931.28
  L 826.44 931.24
  A 0.95 0.95 0.0 0 1 825.52 930.09
  L 845.32 836.72
  A 0.80 0.79 5.4 0 1 846.09 836.09
  L 862.26 836.03
  A 0.77 0.77 0.0 0 1 863.02 836.95
  L 861.65 844.04
  Z"
/>
<path fill="#f7e108" d="
  M 921.10 916.23
  C 926.28 917.74 928.64 915.14 929.61 910.42
  Q 931.02 903.60 932.60 896.72
  A 0.92 0.92 0.0 0 1 933.50 896.00
  L 949.52 896.00
  Q 950.29 896.00 950.19 896.76
  C 947.93 912.79 943.81 930.30 924.43 932.59
  Q 917.75 933.38 912.01 931.49
  C 898.26 926.96 902.73 908.74 904.84 898.44
  Q 910.29 871.87 913.52 858.51
  C 917.11 843.65 928.22 833.27 944.08 834.91
  C 950.03 835.53 955.24 837.02 957.66 842.57
  C 960.78 849.72 958.30 861.88 956.04 869.32
  Q 955.91 869.75 955.46 869.75
  L 939.76 869.75
  A 1.16 1.16 0.0 0 1 938.63 868.32
  C 939.45 864.95 943.83 851.25 938.42 850.79
  C 933.75 850.40 932.30 853.62 931.39 857.80
  Q 925.80 883.36 920.45 908.99
  Q 919.68 912.68 920.41 915.52
  Q 920.56 916.07 921.10 916.23
  Z"
/>
<path fill="#f7e108" d="
  M 984.33 931.17
  C 974.79 934.75 960.74 932.90 957.86 920.83
  C 956.59 915.46 956.89 911.12 958.08 905.21
  Q 964.13 875.16 967.82 859.82
  C 971.48 844.65 984.58 831.48 1001.33 835.40
  C 1013.83 838.33 1014.96 850.62 1012.88 861.09
  Q 1010.35 873.77 1007.68 886.43
  Q 1007.56 887.00 1006.98 887.00
  L 979.36 887.01
  Q 978.66 887.01 978.50 887.69
  Q 975.40 900.78 973.98 908.99
  C 973.49 911.81 974.20 915.98 977.39 916.94
  C 985.45 919.36 987.74 901.90 988.70 897.35
  Q 988.77 896.98 989.16 896.98
  L 1004.84 896.92
  A 0.40 0.40 0.0 0 1 1005.23 897.39
  C 1002.76 911.08 998.91 925.69 984.33 931.17
  Z
  M 996.95 856.17
  C 997.54 850.32 991.82 848.77 988.14 852.43
  C 984.17 856.39 982.92 866.23 981.71 871.98
  Q 981.45 873.25 982.74 873.25
  L 992.95 873.25
  Q 993.42 873.25 993.56 872.80
  Q 996.11 864.55 996.95 856.17
  Z"
/>
<path fill="#f7e108" d="
  M 1038.83 914.24
  Q 1045.24 904.24 1037.53 894.23
  C 1030.15 884.67 1022.22 876.78 1023.52 863.49
  C 1024.95 848.89 1035.08 835.22 1050.78 834.79
  C 1067.73 834.32 1071.52 845.33 1067.97 860.18
  Q 1067.83 860.75 1067.25 860.75
  L 1052.19 860.75
  Q 1051.41 860.75 1051.52 859.98
  C 1051.86 857.49 1052.65 854.51 1051.89 852.37
  C 1050.72 849.10 1046.37 848.87 1044.39 851.63
  C 1032.87 867.69 1050.39 876.27 1056.11 888.96
  C 1065.29 909.29 1049.07 936.44 1025.00 932.32
  C 1011.33 929.99 1008.66 915.34 1011.82 904.04
  Q 1011.97 903.50 1012.53 903.50
  L 1027.74 903.50
  Q 1028.44 903.50 1028.29 904.18
  C 1027.46 908.12 1026.93 914.01 1030.25 916.75
  C 1033.27 919.25 1036.92 917.20 1038.83 914.24
  Z"
/>
<path fill="#f7e108" d="
  M 547.32 836.14
  Q 555.05 835.82 562.34 836.38
  Q 563.13 836.44 562.97 837.22
  L 543.17 930.61
  Q 543.04 931.25 542.38 931.25
  L 526.08 931.25
  A 0.68 0.68 0.0 0 1 525.42 930.43
  Q 534.98 884.74 544.81 838.81
  C 545.26 836.73 544.96 836.24 547.32 836.14
  Z"
/>
<path fill="#f7e108" d="
  M 634.36 835.97
  L 650.30 836.09
  A 0.62 0.62 0.0 0 1 650.88 836.93
  L 615.72 930.85
  A 0.62 0.62 0.0 0 1 615.14 931.25
  L 598.54 931.25
  A 0.62 0.62 0.0 0 1 597.92 930.60
  L 602.56 836.74
  A 0.62 0.62 0.0 0 1 603.17 836.15
  L 619.19 836.01
  A 0.62 0.62 0.0 0 1 619.81 836.69
  L 613.28 896.59
  A 0.62 0.62 0.0 0 0 614.49 896.84
  L 633.76 836.41
  A 0.62 0.62 0.0 0 1 634.36 835.97
  Z"
/>
<path fill="#f7e108" d="
  M 905.76 837.06
  L 885.92 930.62
  A 0.80 0.80 0.0 0 1 885.14 931.25
  L 868.96 931.25
  A 0.80 0.80 0.0 0 1 868.17 930.28
  L 887.97 836.71
  A 0.80 0.80 0.0 0 1 888.75 836.07
  L 904.97 836.10
  A 0.80 0.80 0.0 0 1 905.76 837.06
  Z"
/>
</svg>
